<svg width="605" height="274" viewBox="0 0 605 274" fill="none" xmlns="http://www.w3.org/2000/svg">
<path d="M168.218 163.155V195.999H2.58065L0.84375 170.735L98.2679 17.0981H131.585L95.5836 78.2054L43.3188 163.155H168.218ZM140.901 17.0981V247H99.0574V17.0981H140.901Z" fill="white"/>
<path d="M604.132 163.155V195.999H438.495L436.758 170.735L534.182 17.0981H567.499L531.498 78.2054L479.233 163.155H604.132ZM576.815 17.0981V247H534.972V17.0981H576.815Z" fill="white"/>
<path d="M330.636 19.5333C331.672 24.4651 327.926 29.4265 322.27 30.6151L241.172 47.6573C235.516 48.8459 230.09 45.8117 229.054 40.88L228.935 40.3153C227.899 35.3835 231.644 30.4221 237.3 29.2335L318.399 12.1913C324.055 11.0027 329.481 14.0369 330.517 18.9686L330.636 19.5333Z" fill="#FFFFFE"/>
<path d="M243.117 47.2495L320.319 31.0262L332.529 89.1298L255.327 105.353L243.117 47.2495Z" fill="#FFFFFE"/>
<path d="M308.607 189.172C349.25 203.759 373.191 194.175 407.034 161.926C406.865 157.787 406.367 153.625 405.493 149.464C395.757 103.135 344.793 74.6296 291.659 85.7952C238.526 96.9608 203.345 143.568 213.081 189.898C213.408 191.454 213.789 192.986 214.209 194.5C255.768 168.83 278.702 178.437 308.607 189.172Z" fill="#FFFFFE"/>
<path d="M308.613 189.171C278.709 178.435 255.775 168.829 214.215 194.499C226.256 238.091 275.572 264.357 326.921 253.566C375.283 243.403 408.757 203.876 407.04 161.925C373.196 194.174 349.256 203.757 308.613 189.171Z" fill="#6246EA"/>
</svg>
