<svg width="34" height="34" viewBox="0 0 34 34" fill="none" xmlns="http://www.w3.org/2000/svg">
<path d="M25.0039 12.7908L9.00391 4.51904" stroke="#FFFFFE" stroke-width="2" stroke-linecap="round" stroke-linejoin="round"/>
<path d="M33 23.3097V10.5595C32.9994 10.0005 32.8348 9.45147 32.5227 8.96752C32.2107 8.48357 31.7622 8.08169 31.2222 7.8022L18.7778 1.42705C18.2373 1.14729 17.6241 1 17 1C16.3759 1 15.7627 1.14729 15.2222 1.42705L2.77778 7.8022C2.2378 8.08169 1.7893 8.48357 1.47726 8.96752C1.16523 9.45147 1.00064 10.0005 1 10.5595V23.3097C1.00064 23.8687 1.16523 24.4177 1.47726 24.9017C1.7893 25.3856 2.2378 25.7875 2.77778 26.067L15.2222 32.4421C15.7627 32.7219 16.3759 32.8692 17 32.8692C17.6241 32.8692 18.2373 32.7219 18.7778 32.4421L31.2222 26.067C31.7622 25.7875 32.2107 25.3856 32.5227 24.9017C32.8348 24.4177 32.9994 23.8687 33 23.3097Z" stroke="#FFFFFE" stroke-width="2" stroke-linecap="round" stroke-linejoin="round"/>
<path d="M1.47656 8.90186L16.9966 16.9505L32.5166 8.90186" stroke="#FFFFFE" stroke-width="2" stroke-linecap="round" stroke-linejoin="round"/>
<path d="M17 32.9999V16.9346" stroke="#FFFFFE" stroke-width="2" stroke-linecap="round" stroke-linejoin="round"/>
</svg>
