<svg width="352" height="399" viewBox="0 0 352 399" fill="none" xmlns="http://www.w3.org/2000/svg">
<path d="M216.702 27.893C218.211 35.0721 212.758 42.2945 204.525 44.0247L86.4706 68.8329C78.2371 70.5631 70.3387 66.1463 68.8301 58.9672L68.6573 58.1451C67.1487 50.9661 72.6012 43.7437 80.8347 42.0135L198.889 17.2053C207.122 15.4751 215.021 19.8919 216.53 27.0709L216.702 27.893Z" fill="#FFFFFE"/>
<path d="M89.2969 68.2383L201.679 44.6221L219.453 129.203L107.071 152.819L89.2969 68.2383Z" fill="#FFFFFE"/>
<path d="M184.635 274.834C243.8 296.068 278.649 282.118 327.915 235.172C327.669 229.148 326.944 223.089 325.671 217.031C311.499 149.59 237.311 108.096 159.965 124.35C82.6188 140.603 31.4065 208.45 45.5787 275.891C46.0547 278.156 46.6098 280.386 47.2201 282.59C107.718 245.223 141.103 259.207 184.635 274.834Z" fill="#FFFFFE"/>
<path d="M184.644 274.832C141.113 259.205 107.728 245.221 47.229 282.588C64.7576 346.046 136.546 384.28 211.296 368.572C281.695 353.778 330.423 296.239 327.924 235.171C278.657 282.116 243.807 296.066 184.644 274.832Z" fill="#6246EA"/>
</svg>
