<svg width="531" height="313" viewBox="0 0 531 313" fill="none" xmlns="http://www.w3.org/2000/svg">
<path d="M202.452 2.32019V157.605H182.34V2.32019H202.452Z" fill="white"/>
<path d="M237.578 4.41935C246.332 2.59637 260.239 1.21533 274.311 1.21533C294.423 1.21533 307.332 4.69556 317.028 12.4847C325.117 18.4508 329.993 27.6762 329.993 39.8846C329.993 54.8551 320.075 68.0027 303.676 73.9688V74.4107C318.469 78.1119 335.81 90.3204 335.81 113.356C335.81 126.725 330.491 136.834 322.624 144.457C311.765 154.346 294.201 158.986 268.771 158.986C254.92 158.986 244.282 158.047 237.578 157.163V4.41935ZM257.635 68.0027H275.863C297.138 68.0027 309.604 56.9543 309.604 41.9838C309.604 23.8092 295.753 16.6278 275.419 16.6278C266.167 16.6278 260.848 17.3459 257.635 18.0088V68.0027ZM257.635 142.413C261.568 143.132 267.33 143.352 274.477 143.352C295.254 143.352 314.424 135.729 314.424 113.19C314.424 91.9776 296.196 83.2494 274.2 83.2494H257.579V142.413H257.635Z" fill="white"/>
<path d="M382.846 2.32019V157.605H362.734V2.32019H382.846Z" fill="white"/>
<path d="M182.34 156.389H202.452V294.825H268.992V311.619H182.34V156.389Z" fill="#6246EA"/>
<path d="M316.584 262.785L300.406 311.619H279.629L332.485 156.389H356.752L409.885 311.619H388.388L371.766 262.785H316.584ZM367.611 247.152L352.375 202.461C348.884 192.352 346.613 183.126 344.286 174.122H343.843C341.516 183.347 338.967 192.794 335.975 202.24L320.739 247.152H367.611Z" fill="#6246EA"/>
<path d="M432.77 158.433C441.523 156.61 455.43 155.229 469.503 155.229C489.614 155.229 502.524 158.71 512.219 166.499C520.308 172.465 525.184 181.69 525.184 193.899C525.184 208.869 515.267 222.017 498.867 227.983V228.425C513.66 232.126 531.002 244.334 531.002 267.37C531.002 280.739 525.683 290.848 517.815 298.471C506.956 308.36 489.393 313 463.962 313C450.111 313 439.473 312.061 432.77 311.177V158.433ZM452.881 222.017H471.109C492.385 222.017 504.851 210.968 504.851 195.998C504.851 177.823 491 170.642 470.666 170.642C461.414 170.642 456.095 171.36 452.881 172.023V222.017ZM452.881 296.427C456.815 297.146 462.577 297.367 469.724 297.367C490.501 297.367 509.671 289.743 509.671 267.204C509.671 245.992 491.443 237.263 469.447 237.263H452.826V296.427H452.881Z" fill="#6246EA"/>
<path d="M15.0734 196.606L18.5639 193.125V188.651C16.6801 185.502 14.7964 182.022 12.8572 178.044C12.4694 178.707 12.0261 179.425 11.6383 180.143V191.468H8.14784V186.717C6.76273 189.59 5.43302 192.794 4.26953 196.219L4.71277 196.661H15.0734V196.606Z" fill="#6246EA"/>
<path d="M23.717 196.606H23.8833C22.6644 195.059 21.4455 193.291 20.2266 191.413V193.125L23.717 196.606Z" fill="#6246EA"/>
<path d="M83.6659 193.954C82.6132 194.838 81.5605 195.722 80.5078 196.605H81.0064L83.6659 193.954Z" fill="#6246EA"/>
<path d="M93.1404 196.606V186.607C90.758 188.264 88.431 190.087 86.2148 191.855V196.606H93.1404Z" fill="#6246EA"/>
<path d="M101.84 196.606V181.304C99.4572 182.519 97.1302 183.9 94.9141 185.391V196.606H101.84Z" fill="#6246EA"/>
<path d="M107.044 196.606H117.46L120.951 193.125V177.547L119.4 176C113.638 176.553 108.43 178.21 103.609 180.42V193.125L107.044 196.606ZM110.48 179.315H113.97V191.413H110.48V179.315Z" fill="#6246EA"/>
<path d="M129.594 196.606V176.111C127.322 175.835 124.995 175.724 122.668 175.779V196.55H129.594V196.606Z" fill="#6246EA"/>
<path d="M131.312 193.181L134.803 196.661H145.219L148.709 193.181V182.077C143.612 179.591 138.183 177.602 132.365 176.608L131.312 177.658V193.181ZM138.293 179.315H141.784V191.413H138.293V179.315Z" fill="#6246EA"/>
<path d="M157.351 196.606V186.994C155.135 185.557 152.808 184.176 150.426 182.906V196.606H157.351Z" fill="#6246EA"/>
<path d="M162.56 196.606H169.873C166.715 193.788 163.114 190.916 159.125 188.154V193.125L162.56 196.606Z" fill="#6246EA"/>
<path d="M8.09352 226.16V203.677H2.05444C1.72201 205.058 1.44499 206.494 1.16797 207.93V226.16H8.09352Z" fill="#6246EA"/>
<path d="M23.7151 226.16L27.2056 222.68V207.102L23.7151 203.621H13.2991L9.80859 207.102V222.68L13.2991 226.16H23.7151ZM16.7895 208.869H20.28V220.967H16.7895V208.869Z" fill="#6246EA"/>
<path d="M28.9258 222.68L32.4163 226.16H42.8323L46.3228 222.68V212.294C44.2174 211.963 41.8904 211.245 39.3972 210.085V220.967H35.9067V208.869H37.0148C35.1865 207.82 33.3027 206.439 31.3636 204.726L28.9812 207.102V222.68H28.9258Z" fill="#6246EA"/>
<path d="M54.9646 226.16V212.184C52.7484 212.626 50.4215 212.736 48.0391 212.515V226.105H54.9646V226.16Z" fill="#6246EA"/>
<path d="M60.1734 226.16H70.5894L74.0799 222.68V207.102L71.1434 204.174C68.761 205.941 66.3786 207.543 63.9963 208.814H67.1543V220.912H63.6638V208.98C61.3922 210.195 59.1207 211.134 56.7383 211.742V222.68L60.1734 226.16Z" fill="#6246EA"/>
<path d="M89.7034 226.16L93.1939 222.68V207.102L89.7034 203.621H79.2874L75.7969 207.102V222.68L79.2874 226.16H89.7034ZM82.7224 208.869H86.2129V220.967H82.7224V208.869Z" fill="#6246EA"/>
<path d="M101.781 203.677H94.8555V226.16H101.781V203.677Z" fill="#6246EA"/>
<path d="M117.461 226.16L120.952 222.68V207.102L117.461 203.621H107.045L103.555 207.102V222.68L107.045 226.16H117.461ZM110.48 208.869H113.971V220.967H110.48V208.869Z" fill="#6246EA"/>
<path d="M129.594 203.677H122.668V226.16H129.594V203.677Z" fill="#6246EA"/>
<path d="M145.219 226.16L148.709 222.68V207.102L145.219 203.621H134.803L131.312 207.102V222.68L134.803 226.16H145.219ZM138.293 208.869H141.784V220.967H138.293V208.869Z" fill="#6246EA"/>
<path d="M164.278 226.16L167.768 222.68V207.102L164.278 203.621H153.862L150.371 207.102V222.68L153.862 226.16H164.278ZM157.352 208.869H160.843V220.967H157.352V208.869Z" fill="#6246EA"/>
<path d="M169.484 226.16H175.911C175.911 217.211 174.471 209.422 172.975 203.677H169.484V226.16Z" fill="#6246EA"/>
<path d="M18.5084 252.234V236.656L15.018 233.176H4.65733L1.55469 236.269C2.82899 242.843 4.93436 249.362 7.75998 255.714H15.018L18.5084 252.234ZM11.5829 250.466H8.09241V238.368H11.5829V250.466Z" fill="#6246EA"/>
<path d="M20.2812 236.656V252.234L23.7717 255.714H34.1878L37.6782 252.234V236.656L34.1878 233.176H23.7163L20.2812 236.656ZM27.2068 238.368H30.6973V250.466H27.2068V238.368Z" fill="#6246EA"/>
<path d="M46.2693 233.176H39.3438V255.659H46.2693V233.176Z" fill="#6246EA"/>
<path d="M61.8909 255.659L65.3814 252.179V236.601L61.8909 233.12H51.4749L47.9844 236.601V252.179L51.4749 255.659H61.8909ZM54.9653 238.368H58.4558V250.466H54.9653V238.368Z" fill="#6246EA"/>
<path d="M81.0042 255.659L84.4946 252.179V236.601L81.0042 233.12H70.5881L67.0977 236.601V252.179L70.5881 255.659H81.0042ZM74.0786 238.368H77.5691V250.466H74.0786V238.368Z" fill="#6246EA"/>
<path d="M93.1404 233.176H86.2148V255.659H93.1404V233.176Z" fill="#6246EA"/>
<path d="M101.781 233.176H94.8555V255.659H101.781V233.176Z" fill="#6246EA"/>
<path d="M117.461 255.659L120.952 252.179V236.601L117.461 233.12H107.045L103.555 236.601V252.179L107.045 255.659H117.461ZM110.48 238.368H113.971V250.466H110.48V238.368Z" fill="#6246EA"/>
<path d="M129.594 233.176H122.668V255.659H129.594V233.176Z" fill="#6246EA"/>
<path d="M145.219 255.659L148.709 252.179V236.601L145.219 233.12H134.803L131.312 236.601V252.179L134.803 255.659H145.219ZM138.293 238.368H141.784V250.466H138.293V238.368Z" fill="#6246EA"/>
<path d="M157.351 233.176H150.426V255.659H157.351V233.176Z" fill="#6246EA"/>
<path d="M162.561 233.176L159.07 236.656V252.234L162.561 255.714H170.484C171.038 254.278 171.536 252.842 172.035 251.405C173.808 245.992 174.861 240.689 175.415 235.662L172.977 233.231H162.561V233.176ZM169.486 250.466H165.996V238.368H169.486V250.466Z" fill="#6246EA"/>
<path d="M27.2089 266.155L23.7184 262.675H13.3024L11.9727 264.001C13.4686 266.652 15.0753 269.193 16.7928 271.734V267.868H20.2833V276.43C22.0563 278.695 23.94 280.905 25.8792 283.004L27.2089 281.678V266.155Z" fill="#6246EA"/>
<path d="M32.4163 262.73L28.9258 266.21V281.788L32.4163 285.269H42.8323L46.3228 281.788V266.21L42.8323 262.73H32.4163ZM39.3418 280.021H35.8513V267.923H39.3418V280.021Z" fill="#6246EA"/>
<path d="M54.9646 262.73H48.0391V285.213H54.9646V262.73Z" fill="#6246EA"/>
<path d="M60.1741 262.73L56.6836 266.21V281.788L60.1741 285.269H70.5901L74.0806 281.788V266.21L70.5901 262.73H60.1741ZM67.0996 280.021H63.6091V267.923H67.0996V280.021Z" fill="#6246EA"/>
<path d="M79.2874 262.73L75.7969 266.21V281.788L79.2874 285.269H89.7034L93.1939 281.788V266.21L89.7034 262.73H79.2874ZM86.2129 280.021H82.7224V267.923H86.2129V280.021Z" fill="#6246EA"/>
<path d="M101.781 262.73H94.8555V285.213H101.781V262.73Z" fill="#6246EA"/>
<path d="M117.461 285.213L120.952 281.733V266.155L117.461 262.675H107.045L103.555 266.155V281.733L107.045 285.213H117.461ZM110.48 267.923H113.971V280.021H110.48V267.923Z" fill="#6246EA"/>
<path d="M129.594 262.73H122.668V285.213H129.594V262.73Z" fill="#6246EA"/>
<path d="M145.219 285.213L148.709 281.733V266.155L145.219 262.675H134.803L131.312 266.155V281.733L134.803 285.213H145.219ZM138.293 267.923H141.784V280.021H138.293V267.923Z" fill="#6246EA"/>
<path d="M153.916 262.73L150.426 266.21V281.788L152.476 283.832C154.193 282.065 155.8 280.186 157.351 278.253V267.923H160.842V273.613C162.836 270.74 164.72 267.812 166.327 264.719L164.277 262.675H153.916V262.73Z" fill="#6246EA"/>
<path d="M39.3438 292.229V295.102C41.5599 296.759 43.8869 298.306 46.2693 299.687V292.174H39.3438V292.229Z" fill="#6246EA"/>
<path d="M61.8909 292.229H51.4749L47.9844 295.709V300.736C50.256 302.007 52.5275 303.222 54.9099 304.272V297.422H58.4004V305.763C60.672 306.647 62.999 307.476 65.326 308.194V295.709L61.8909 292.229Z" fill="#6246EA"/>
<path d="M84.4946 295.709L81.0042 292.229H70.5881L67.0977 295.709V308.746C72.5827 310.238 78.2893 311.232 84.2176 311.564L84.4392 311.343V295.709H84.4946ZM77.5137 309.575H74.0232V297.477H77.5137V309.575Z" fill="#6246EA"/>
<path d="M86.2148 292.229V311.619C86.6027 311.619 86.9905 311.674 87.3783 311.674C89.3175 311.729 91.2566 311.674 93.1404 311.564V292.284H86.2148V292.229Z" fill="#6246EA"/>
<path d="M94.8555 292.229V311.398C97.1825 311.232 99.5094 310.956 101.781 310.569V292.174H94.8555V292.229Z" fill="#6246EA"/>
<path d="M117.461 292.229H107.045L103.555 295.709V310.348C105.882 309.906 108.209 309.409 110.48 308.802V297.477H113.971V307.752C116.298 307.034 118.625 306.205 120.896 305.266V295.709L117.461 292.229Z" fill="#6246EA"/>
<path d="M122.668 292.229V304.548C125.05 303.554 127.322 302.394 129.594 301.178V292.229H122.668Z" fill="#6246EA"/>
<path d="M131.312 295.709V300.239C135.468 297.864 139.457 295.212 143.169 292.229H134.803L131.312 295.709Z" fill="#6246EA"/>
<path d="M128.93 0V64.9644H53.6352V0H33.5234V152.633C39.6179 147.606 46.3773 143.408 53.6352 140.093V87.8345H49.1475C47.5962 87.8345 46.3219 86.5639 46.3219 85.0171V84.4647C46.3219 82.918 47.5962 81.6474 49.1475 81.6474H133.639C135.191 81.6474 136.465 82.918 136.465 84.4647V85.0171C136.465 86.5639 135.191 87.8345 133.639 87.8345H128.93V139.983C136.299 143.297 143.113 147.551 149.263 152.633V0H128.93Z" fill="white"/>
</svg>
