<svg width="198" height="35" viewBox="0 0 198 35" fill="none" xmlns="http://www.w3.org/2000/svg">
<path d="M22.8984 14.9609V20.0234H4.94531V14.9609H22.8984ZM6.70312 0.875V35H0.257812V0.875H6.70312ZM27.6797 0.875V35H21.2344V0.875H27.6797ZM48.3094 0.875V35H41.8641V0.875H48.3094ZM75.5484 19.7891H66.8297L66.7828 15.2422H74.2594C75.5406 15.2422 76.6109 15.0625 77.4703 14.7031C78.3297 14.3438 78.9781 13.8203 79.4156 13.1328C79.8688 12.4453 80.0953 11.6094 80.0953 10.625C80.0953 9.53125 79.8844 8.64062 79.4625 7.95312C79.0563 7.26562 78.4156 6.76562 77.5406 6.45312C76.6656 6.125 75.5563 5.96094 74.2125 5.96094H68.9156V35H62.4703V0.875H74.2125C76.15 0.875 77.8766 1.0625 79.3922 1.4375C80.9234 1.79687 82.2203 2.35937 83.2828 3.125C84.3453 3.89063 85.15 4.85156 85.6969 6.00781C86.2594 7.16406 86.5406 8.53906 86.5406 10.1328C86.5406 11.5391 86.2125 12.8359 85.5563 14.0234C84.9156 15.1953 83.9234 16.1484 82.5797 16.8828C81.2516 17.6172 79.5641 18.0391 77.5172 18.1484L75.5484 19.7891ZM75.2672 35H64.9313L67.6266 29.9375H75.2672C76.5484 29.9375 77.6031 29.7266 78.4313 29.3047C79.275 28.8828 79.9 28.3047 80.3063 27.5703C80.7281 26.8203 80.9391 25.9609 80.9391 24.9922C80.9391 23.9297 80.7516 23.0078 80.3766 22.2266C80.0172 21.4453 79.4391 20.8438 78.6422 20.4219C77.8609 20 76.8297 19.7891 75.5484 19.7891H68.8453L68.8922 15.2422H77.4234L78.9 17C80.8688 17.0156 82.4703 17.4062 83.7047 18.1719C84.9547 18.9375 85.8766 19.9219 86.4703 21.125C87.0641 22.3281 87.3609 23.625 87.3609 25.0156C87.3609 27.2031 86.8844 29.0391 85.9313 30.5234C84.9938 32.0078 83.6188 33.125 81.8063 33.875C80.0094 34.625 77.8297 35 75.2672 35Z" fill="white"/>
<path d="M121.795 29.9375V35H104.639V29.9375H121.795ZM106.584 0.875V35H100.139V0.875H106.584ZM147.347 6.05469L137.62 35H130.8L143.55 0.875H147.909L147.347 6.05469ZM155.48 35L145.706 6.05469L145.12 0.875H149.503L162.323 35H155.48ZM155.034 22.3203V27.4062H136.73V22.3203H155.034ZM186.117 19.7891H177.398L177.352 15.2422H184.828C186.109 15.2422 187.18 15.0625 188.039 14.7031C188.898 14.3438 189.547 13.8203 189.984 13.1328C190.438 12.4453 190.664 11.6094 190.664 10.625C190.664 9.53125 190.453 8.64062 190.031 7.95312C189.625 7.26562 188.984 6.76562 188.109 6.45312C187.234 6.125 186.125 5.96094 184.781 5.96094H179.484V35H173.039V0.875H184.781C186.719 0.875 188.445 1.0625 189.961 1.4375C191.492 1.79687 192.789 2.35937 193.852 3.125C194.914 3.89063 195.719 4.85156 196.266 6.00781C196.828 7.16406 197.109 8.53906 197.109 10.1328C197.109 11.5391 196.781 12.8359 196.125 14.0234C195.484 15.1953 194.492 16.1484 193.148 16.8828C191.82 17.6172 190.133 18.0391 188.086 18.1484L186.117 19.7891ZM185.836 35H175.5L178.195 29.9375H185.836C187.117 29.9375 188.172 29.7266 189 29.3047C189.844 28.8828 190.469 28.3047 190.875 27.5703C191.297 26.8203 191.508 25.9609 191.508 24.9922C191.508 23.9297 191.32 23.0078 190.945 22.2266C190.586 21.4453 190.008 20.8438 189.211 20.4219C188.43 20 187.398 19.7891 186.117 19.7891H179.414L179.461 15.2422H187.992L189.469 17C191.438 17.0156 193.039 17.4062 194.273 18.1719C195.523 18.9375 196.445 19.9219 197.039 21.125C197.633 22.3281 197.93 23.625 197.93 25.0156C197.93 27.2031 197.453 29.0391 196.5 30.5234C195.562 32.0078 194.188 33.125 192.375 33.875C190.578 34.625 188.398 35 185.836 35Z" fill="#6246EA"/>
</svg>
