<svg width="46" height="80" viewBox="0 0 46 80" fill="none" xmlns="http://www.w3.org/2000/svg">
<path d="M3.80367 50.3125L4.68423 49.432V48.2998C4.20901 47.5031 3.73379 46.6226 3.24458 45.6162C3.14674 45.7839 3.03493 45.9656 2.93709 46.1473V49.0127H2.05653V47.8106C1.7071 48.5374 1.37165 49.3481 1.07812 50.2147L1.18994 50.3265H3.80367V50.3125Z" fill="#6246EA"/>
<path d="M5.98212 50.3124H6.02405C5.71656 49.921 5.40906 49.4738 5.10156 48.9985V49.4318L5.98212 50.3124Z" fill="#6246EA"/>
<path d="M21.1092 49.6416C20.8436 49.8652 20.5781 50.0889 20.3125 50.3125H20.4383L21.1092 49.6416Z" fill="#6246EA"/>
<path d="M23.4971 50.3126V47.7827C22.8961 48.202 22.3091 48.6633 21.75 49.1105V50.3126H23.4971Z" fill="#6246EA"/>
<path d="M25.6925 50.3126V46.4409C25.0914 46.7484 24.5044 47.0978 23.9453 47.4752V50.3126H25.6925Z" fill="#6246EA"/>
<path d="M27.0072 50.3121H29.6349L30.5155 49.4316V45.49L30.1241 45.0986C28.6705 45.2384 27.3566 45.6577 26.1406 46.2168V49.4316L27.0072 50.3121ZM27.8738 45.9373H28.7544V48.9983H27.8738V45.9373Z" fill="#6246EA"/>
<path d="M32.6925 50.3124V45.1269C32.1194 45.057 31.5324 45.0291 30.9453 45.043V50.2985H32.6925V50.3124Z" fill="#6246EA"/>
<path d="M33.125 49.4461L34.0056 50.3266H36.6333L37.5138 49.4461V46.6367C36.2279 46.0077 34.8582 45.5045 33.3906 45.2529L33.125 45.5185V49.4461ZM34.8861 45.9378H35.7667V48.9988H34.8861V45.9378Z" fill="#6246EA"/>
<path d="M39.6964 50.3125V47.8805C39.1373 47.5171 38.5502 47.1677 37.9492 46.8462V50.3125H39.6964Z" fill="#6246EA"/>
<path d="M41.0111 50.3128H42.8561C42.0594 49.6 41.1509 48.8732 40.1445 48.1743V49.4323L41.0111 50.3128Z" fill="#6246EA"/>
<path d="M2.04402 57.7903V52.1016H0.52051C0.436647 52.451 0.366761 52.8144 0.296875 53.1778V57.7903H2.04402Z" fill="#6246EA"/>
<path d="M5.98483 57.7906L6.86539 56.91V52.9684L5.98483 52.0879H3.35712L2.47656 52.9684V56.91L3.35712 57.7906H5.98483ZM4.23768 53.4157H5.11825V56.4767H4.23768V53.4157Z" fill="#6246EA"/>
<path d="M7.29688 56.9098L8.17744 57.7903H10.8051L11.6857 56.9098V54.2821C11.1546 54.1982 10.5675 54.0165 9.93856 53.723V56.4765H9.058V53.4155H9.33754C8.87629 53.1499 8.40107 52.8005 7.91187 52.3672L7.31085 52.9682V56.9098H7.29688Z" fill="#6246EA"/>
<path d="M13.8643 57.7901V54.2539C13.3052 54.3657 12.7182 54.3937 12.1172 54.3378V57.7762H13.8643V57.7901Z" fill="#6246EA"/>
<path d="M15.1791 57.7904H17.8068L18.6873 56.9099V52.9683L17.9466 52.2275C17.3455 52.6748 16.7445 53.0801 16.1435 53.4016H16.9402V56.4626H16.0596V53.4436C15.4866 53.7511 14.9135 53.9887 14.3125 54.1424V56.9099L15.1791 57.7904Z" fill="#6246EA"/>
<path d="M22.6294 57.7906L23.5099 56.91V52.9684L22.6294 52.0879H20.0017L19.1211 52.9684V56.91L20.0017 57.7906H22.6294ZM20.8682 53.4157H21.7488V56.4767H20.8682V53.4157Z" fill="#6246EA"/>
<path d="M25.6768 52.1016H23.9297V57.7903H25.6768V52.1016Z" fill="#6246EA"/>
<path d="M29.6333 57.7906L30.5138 56.91V52.9684L29.6333 52.0879H27.0056L26.125 52.9684V56.91L27.0056 57.7906H29.6333ZM27.8721 53.4157H28.7527V56.4767H27.8721V53.4157Z" fill="#6246EA"/>
<path d="M32.6925 52.1016H30.9453V57.7903H32.6925V52.1016Z" fill="#6246EA"/>
<path d="M36.6333 57.7906L37.5138 56.91V52.9684L36.6333 52.0879H34.0056L33.125 52.9684V56.91L34.0056 57.7906H36.6333ZM34.8861 53.4157H35.7667V56.4767H34.8861V53.4157Z" fill="#6246EA"/>
<path d="M41.4419 57.7906L42.3224 56.91V52.9684L41.4419 52.0879H38.8142L37.9336 52.9684V56.91L38.8142 57.7906H41.4419ZM39.6947 53.4157H40.5753V56.4767H39.6947V53.4157Z" fill="#6246EA"/>
<path d="M42.7578 57.7903H44.3792C44.3792 55.526 44.0158 53.5552 43.6384 52.1016H42.7578V57.7903Z" fill="#6246EA"/>
<path d="M4.67154 64.3877V60.4461L3.79098 59.5656H1.17725L0.394531 60.3483C0.716006 62.0116 1.24714 63.6609 1.95997 65.2682H3.79098L4.67154 64.3877ZM2.9244 63.9404H2.04384V60.8794H2.9244V63.9404Z" fill="#6246EA"/>
<path d="M5.11719 60.446V64.3875L5.99775 65.2681H8.62545L9.50602 64.3875V60.446L8.62545 59.5654H5.98377L5.11719 60.446ZM6.86433 60.8793H7.74489V63.9403H6.86433V60.8793Z" fill="#6246EA"/>
<path d="M11.6729 59.5654H9.92578V65.2541H11.6729V59.5654Z" fill="#6246EA"/>
<path d="M15.6137 65.2539L16.4943 64.3734V60.4318L15.6137 59.5513H12.986L12.1055 60.4318V64.3734L12.986 65.2539H15.6137ZM13.8666 60.8791H14.7472V63.9401H13.8666V60.8791Z" fill="#6246EA"/>
<path d="M20.438 65.2539L21.3185 64.3734V60.4318L20.438 59.5513H17.8102L16.9297 60.4318V64.3734L17.8102 65.2539H20.438ZM18.6908 60.8791H19.5714V63.9401H18.6908V60.8791Z" fill="#6246EA"/>
<path d="M23.4971 59.5654H21.75V65.2541H23.4971V59.5654Z" fill="#6246EA"/>
<path d="M25.6768 59.5654H23.9297V65.2541H25.6768V59.5654Z" fill="#6246EA"/>
<path d="M29.6333 65.2539L30.5138 64.3734V60.4318L29.6333 59.5513H27.0056L26.125 60.4318V64.3734L27.0056 65.2539H29.6333ZM27.8721 60.8791H28.7527V63.9401H27.8721V60.8791Z" fill="#6246EA"/>
<path d="M32.6925 59.5654H30.9453V65.2541H32.6925V59.5654Z" fill="#6246EA"/>
<path d="M36.6333 65.2539L37.5138 64.3734V60.4318L36.6333 59.5513H34.0056L33.125 60.4318V64.3734L34.0056 65.2539H36.6333ZM34.8861 60.8791H35.7667V63.9401H34.8861V60.8791Z" fill="#6246EA"/>
<path d="M39.6964 59.5656H37.9492V65.2543H39.6964V59.5656Z" fill="#6246EA"/>
<path d="M41.0095 59.5654L40.1289 60.446V64.3875L41.0095 65.2681H43.0082C43.148 64.9047 43.2738 64.5413 43.3996 64.1779C43.8468 62.8081 44.1124 61.4663 44.2522 60.1944L43.6372 59.5794H41.0095V59.5654ZM42.7566 63.9403H41.8761V60.8793H42.7566V63.9403Z" fill="#6246EA"/>
<path d="M6.86325 67.9099L5.98269 67.0293H3.35498L3.01953 67.3647C3.39691 68.0356 3.80225 68.6786 4.23554 69.3215V68.3431H5.11611V70.5096C5.56337 71.0827 6.0386 71.6418 6.5278 72.1729L6.86325 71.8374V67.9099Z" fill="#6246EA"/>
<path d="M8.17744 67.043L7.29688 67.9235V71.8651L8.17744 72.7456H10.8051L11.6857 71.8651V67.9235L10.8051 67.043H8.17744ZM9.92458 71.4178H9.04402V68.3568H9.92458V71.4178Z" fill="#6246EA"/>
<path d="M13.8643 67.043H12.1172V72.7317H13.8643V67.043Z" fill="#6246EA"/>
<path d="M15.1813 67.043L14.3008 67.9235V71.8651L15.1813 72.7456H17.809L18.6896 71.8651V67.9235L17.809 67.043H15.1813ZM16.9285 71.4178H16.0479V68.3568H16.9285V71.4178Z" fill="#6246EA"/>
<path d="M20.0017 67.043L19.1211 67.9235V71.8651L20.0017 72.7456H22.6294L23.5099 71.8651V67.9235L22.6294 67.043H20.0017ZM21.7488 71.4178H20.8682V68.3568H21.7488V71.4178Z" fill="#6246EA"/>
<path d="M25.6768 67.043H23.9297V72.7317H25.6768V67.043Z" fill="#6246EA"/>
<path d="M29.6333 72.732L30.5138 71.8514V67.9099L29.6333 67.0293H27.0056L26.125 67.9099V71.8514L27.0056 72.732H29.6333ZM27.8721 68.3571H28.7527V71.4181H27.8721V68.3571Z" fill="#6246EA"/>
<path d="M32.6925 67.043H30.9453V72.7317H32.6925V67.043Z" fill="#6246EA"/>
<path d="M36.6333 72.732L37.5138 71.8514V67.9099L36.6333 67.0293H34.0056L33.125 67.9099V71.8514L34.0056 72.732H36.6333ZM34.8861 68.3571H35.7667V71.4181H34.8861V68.3571Z" fill="#6246EA"/>
<path d="M38.8298 67.0433L37.9492 67.9238V71.8654L38.4664 72.3825C38.8997 71.9353 39.305 71.46 39.6964 70.9708V68.3571H40.5769V69.7968C41.0801 69.07 41.5553 68.3292 41.9607 67.5464L41.4435 67.0293H38.8298V67.0433Z" fill="#6246EA"/>
<path d="M9.92578 74.5071V75.234C10.4849 75.6533 11.0719 76.0446 11.6729 76.3941V74.4932H9.92578V74.5071Z" fill="#6246EA"/>
<path d="M15.6137 74.5068H12.986L12.1055 75.3874V76.6593C12.6785 76.9808 13.2516 77.2883 13.8526 77.5539V75.8207H14.7332V77.9312C15.3062 78.1549 15.8933 78.3645 16.4803 78.5462V75.3874L15.6137 74.5068Z" fill="#6246EA"/>
<path d="M21.3185 75.3874L20.438 74.5068H17.8102L16.9297 75.3874V78.686C18.3134 79.0634 19.7531 79.315 21.2486 79.3988L21.3045 79.3429V75.3874H21.3185ZM19.5574 78.8957H18.6768V75.8347H19.5574V78.8957Z" fill="#6246EA"/>
<path d="M21.75 74.5068V79.4128C21.8478 79.4128 21.9457 79.4268 22.0435 79.4268C22.5327 79.4408 23.0219 79.4268 23.4971 79.3988V74.5208H21.75V74.5068Z" fill="#6246EA"/>
<path d="M23.9297 74.5071V79.3572C24.5167 79.3153 25.1038 79.2454 25.6768 79.1476V74.4932H23.9297V74.5071Z" fill="#6246EA"/>
<path d="M29.6333 74.5068H27.0056L26.125 75.3874V79.0913C26.712 78.9795 27.2991 78.8537 27.8721 78.7V75.8347H28.7527V78.4344C29.3397 78.2527 29.9268 78.0431 30.4999 77.8054V75.3874L29.6333 74.5068Z" fill="#6246EA"/>
<path d="M30.9453 74.5068V77.6237C31.5463 77.3722 32.1194 77.0786 32.6925 76.7711V74.5068H30.9453Z" fill="#6246EA"/>
<path d="M33.125 75.3874V76.5335C34.1733 75.9325 35.1796 75.2616 36.1161 74.5068H34.0056L33.125 75.3874Z" fill="#6246EA"/>
<path d="M32.5257 0.567871V17.005H13.5307V0.567871H8.45703V39.1868C9.99452 37.9148 11.6997 36.8526 13.5307 36.0139V22.7916H12.3986C12.0072 22.7916 11.6858 22.4701 11.6858 22.0787V21.9389C11.6858 21.5476 12.0072 21.2261 12.3986 21.2261H33.7138C34.1051 21.2261 34.4266 21.5476 34.4266 21.9389V22.0787C34.4266 22.4701 34.1051 22.7916 33.7138 22.7916H32.5257V35.986C34.3847 36.8246 36.1039 37.9009 37.6553 39.1868V0.567871H32.5257Z" fill="white"/>
</svg>
