<svg width="36" height="36" viewBox="0 0 36 36" fill="none" xmlns="http://www.w3.org/2000/svg">
<path d="M26.2077 3.33695C26.6315 2.91309 27.1347 2.57686 27.6885 2.34746C28.2424 2.11807 28.8359 2 29.4354 2C30.0348 2 30.6284 2.11807 31.1822 2.34746C31.736 2.57686 32.2392 2.91309 32.663 3.33695C33.0869 3.76082 33.4231 4.26402 33.6525 4.81783C33.8819 5.37164 34 5.9652 34 6.56464C34 7.16408 33.8819 7.75765 33.6525 8.31145C33.4231 8.86526 33.0869 9.36847 32.663 9.79233L10.8761 31.5792L2 34L4.42077 25.1239L26.2077 3.33695Z" stroke="#FFFFFE" stroke-width="3.22769" stroke-linecap="round" stroke-linejoin="round"/>
</svg>
