<svg width="48" height="48" viewBox="0 0 48 48" fill="none" xmlns="http://www.w3.org/2000/svg">
<path fill-rule="evenodd" clip-rule="evenodd" d="M21.6006 4.8C12.322 4.8 4.80014 12.3216 4.80014 21.6C4.80014 30.8784 12.322 38.4 21.6006 38.4C30.8793 38.4 38.4011 30.8784 38.4011 21.6C38.4011 12.3216 30.8793 4.8 21.6006 4.8ZM0 21.6C0 9.67064 9.67093 0 21.6006 0C33.5303 0 43.2012 9.67064 43.2012 21.6C43.2012 33.5293 33.5303 43.2 21.6006 43.2C9.67093 43.2 0 33.5293 0 21.6Z" fill="#FFFFFE"/>
<path fill-rule="evenodd" clip-rule="evenodd" d="M33.4608 33.4628C34.398 32.5256 35.9177 32.5256 36.855 33.4628L47.2952 43.9028C48.2325 44.8401 48.2325 46.3597 47.2952 47.2969C46.3579 48.2342 44.8383 48.2342 43.901 47.2969L33.4608 36.8569C32.5235 35.9197 32.5235 34.4001 33.4608 33.4628Z" fill="#FFFFFE"/>
</svg>
