<svg width="157" height="195" viewBox="0 0 157 195" fill="none" xmlns="http://www.w3.org/2000/svg">
<path d="M125.285 9.94726C125.285 15.2496 120.902 19.0437 115.602 19.0437H39.2368C33.936 19.0437 30.0703 15.2496 30.0703 9.94726V9.34551C30.0703 4.0432 33.936 0 39.2368 0H115.602C120.902 0 125.285 4.0432 125.285 9.34551V9.94726Z" fill="#969696"/>
<path d="M41.4922 19.0433H112.332V81.5041H41.4922V19.0433Z" fill="#E0DDED"/>
<path d="M155.29 181.566L131.269 123.645C112.977 133.061 98.3273 132.371 78.9805 118.713C64.418 108.432 52.7051 99.4754 32.7131 102.909L1.00964 181.471C-2.09055 189.208 2.19185 195 10.5281 195H145.916C154.251 195 158.469 189.271 155.29 181.566Z" fill="#6246EA"/>
<path d="M78.9869 118.856C98.3338 132.514 112.984 133.349 131.276 123.933L114.321 83.0908C111.141 75.3845 101.719 69.3167 93.3834 69.3167H61.5574C53.2212 69.3167 43.8634 75.4104 40.7625 83.1487L32.7188 103.1C52.7115 99.6657 64.4244 108.576 78.9869 118.856Z" fill="#E0DDED"/>
<path d="M112.337 38.8476H98.6913C95.7625 38.8476 93.3867 36.4467 93.3867 33.5156C93.3867 30.5853 95.7625 28.1836 98.6913 28.1836H112.337" fill="#969696"/>
<path d="M112.337 57.129H98.6913C95.7625 57.129 93.3867 55.8699 93.3867 52.9396C93.3867 50.0085 95.7625 48.7501 98.6913 48.7501H112.337" fill="#969696"/>
<path d="M112.337 78.4575H98.6913C95.7625 78.4575 93.3867 76.0566 93.3867 73.1255C93.3867 70.1944 95.7625 67.7935 98.6913 67.7935H112.337" fill="#969696"/>
</svg>
