<svg width="152" height="189" viewBox="0 0 152 189" fill="none" xmlns="http://www.w3.org/2000/svg">
<path d="M116.028 7.70405C116.028 11.7059 112.406 14.9499 107.937 14.9499H43.872C39.4039 14.9499 35.7812 11.7059 35.7812 7.70405V7.2458C35.7812 3.24399 39.4039 0 43.872 0H107.937C112.406 0 116.028 3.24399 116.028 7.2458V7.70405Z" fill="#969696"/>
<path d="M45.4062 14.9502H106.393V62.0979H45.4062V14.9502Z" fill="#E0DDED"/>
<path d="M72.3867 135.936C100.817 153.909 120.453 150.371 151.185 130.836C151.715 127.593 152 124.277 152 120.9C152 83.3065 117.974 52.8318 76.0003 52.8318C34.0264 52.8318 0 83.3065 0 120.9C0 122.163 0.044935 123.415 0.121329 124.661C35.6448 111.499 51.4687 122.71 72.3867 135.936Z" fill="#E0DDED"/>
<path d="M72.3942 135.936C51.4769 122.71 35.653 111.499 0.128906 124.661C2.3084 160.504 35.4431 188.969 76.0079 188.969C114.212 188.969 145.822 163.718 151.192 130.837C120.46 150.372 100.824 153.909 72.3942 135.936Z" fill="#6246EA"/>
<path d="M79.6203 76.8258C79.6203 78.6383 78.8164 80.3766 77.3854 81.6583C75.9544 82.9399 74.0136 83.6599 71.9898 83.6599C69.9661 83.6599 68.0253 82.9399 66.5943 81.6583C65.1633 80.3766 64.3594 78.6383 64.3594 76.8258C64.3594 75.0133 65.1633 73.275 66.5943 71.9934C68.0253 70.7117 69.9661 69.9917 71.9898 69.9917C74.0136 69.9917 75.9544 70.7117 77.3854 71.9934C78.8164 73.275 79.6203 75.0133 79.6203 76.8258Z" fill="#6246EA"/>
<path d="M126.142 102.394C126.142 105.678 124.685 108.827 122.093 111.149C119.5 113.471 115.984 114.776 112.317 114.776C110.502 114.776 108.704 114.456 107.026 113.833C105.349 113.211 103.825 112.299 102.541 111.149C101.258 109.999 100.239 108.634 99.5445 107.132C98.8498 105.63 98.4922 104.02 98.4922 102.394C98.4922 99.1098 99.9487 95.9604 102.541 93.6383C105.134 91.3162 108.65 90.0117 112.317 90.0117C115.984 90.0117 119.5 91.3162 122.093 93.6383C124.685 95.9604 126.142 99.1098 126.142 102.394Z" fill="#6246EA"/>
</svg>
