<svg width="80" height="168" viewBox="0 0 80 168" fill="none" xmlns="http://www.w3.org/2000/svg">
<path d="M80 8.57591C80 13.0296 76.3892 16.6405 71.9348 16.6405H8.06521C3.61085 16.6405 0 13.0296 0 8.57591V8.06455C0 3.61082 3.61085 0 8.06521 0H71.9348C76.3892 0 80 3.61082 80 8.06455V8.57591Z" fill="#969696"/>
<path d="M10.2305 16.64H69.75V68.4796H10.2305V16.64Z" fill="#E0DDED"/>
<path d="M35.6442 110.087C48.293 119.017 57.5979 119.153 69.7578 112.352V48.6394H10.2383V99.7974C19.8382 99.0857 27.3895 104.261 35.6442 110.087Z" fill="#E0DDED"/>
<path d="M35.6364 110.088C27.3817 104.262 19.8304 99.086 10.2305 99.7977V137.561C10.2305 153.915 23.6358 167.174 39.9902 167.174C56.3466 167.174 69.75 153.915 69.75 137.561V112.352C57.5901 119.154 48.2852 119.017 35.6364 110.088Z" fill="#6246EA"/>
<path d="M69.7525 33.2796H51.0077C48.5463 33.2796 46.5508 31.2624 46.5508 28.7997C46.5508 26.3363 48.5463 24.3197 51.0077 24.3197H69.7525" fill="#969696"/>
<path d="M69.749 50.5597H58.6438C56.183 50.5597 54.1875 47.9025 54.1875 45.4398C54.1875 42.9771 56.183 40.3198 58.6438 40.3198H69.749" fill="#969696"/>
<path d="M69.749 82.5589H58.6438C56.183 82.5589 54.1875 80.8623 54.1875 78.399C54.1875 75.9356 56.183 74.239 58.6438 74.239H69.749" fill="#969696"/>
<path d="M69.7525 99.1992H51.0077C48.5463 99.1992 46.5508 97.1826 46.5508 94.7192C46.5508 92.2578 48.5463 90.2393 51.0077 90.2393H69.7525" fill="#969696"/>
</svg>
